<?xml version="1.0" encoding="UTF-8"?>
<!DOCTYPE svg PUBLIC "-//W3C//DTD SVG 1.1//EN" "http://www.w3.org/Graphics/SVG/1.1/DTD/svg11.dtd">
<svg xmlns="http://www.w3.org/2000/svg" version="1.1" width="512px" height="512px" style="shape-rendering:geometricPrecision; text-rendering:geometricPrecision; image-rendering:optimizeQuality; fill-rule:evenodd; clip-rule:evenodd" xmlns:xlink="http://www.w3.org/1999/xlink">
<g><path style="opacity:0.991" fill="#000000" d="M 233.5,-0.5 C 248.167,-0.5 262.833,-0.5 277.5,-0.5C 377.805,11.9821 449.305,63.9821 492,155.5C 502.297,180.687 508.797,206.687 511.5,233.5C 511.5,248.167 511.5,262.833 511.5,277.5C 499.018,377.805 447.018,449.305 355.5,492C 330.313,502.297 304.313,508.797 277.5,511.5C 262.833,511.5 248.167,511.5 233.5,511.5C 133.195,499.018 61.6947,447.018 19,355.5C 8.70332,330.313 2.20332,304.313 -0.5,277.5C -0.5,262.833 -0.5,248.167 -0.5,233.5C 11.9821,133.195 63.9821,61.6947 155.5,19C 180.687,8.70332 206.687,2.20332 233.5,-0.5 Z M 249.5,122.5 C 278.505,123.317 298.339,137.317 309,164.5C 319.372,194.443 315.705,222.443 298,248.5C 292.571,254.931 286.237,260.265 279,264.5C 277.239,272.863 280.072,279.03 287.5,283C 301.815,289.823 315.815,297.157 329.5,305C 353.383,322.098 365.383,345.431 365.5,375C 292.167,375.667 218.833,375.667 145.5,375C 145.78,341.424 160.447,316.424 189.5,300C 200.864,294.318 212.198,288.651 223.5,283C 230.752,279.327 233.918,273.494 233,265.5C 212.171,252.196 200.171,233.196 197,208.5C 194.079,184.515 199.745,162.849 214,143.5C 223.409,132.219 235.243,125.219 249.5,122.5 Z"/></g>
</svg>
