<?xml version="1.0" encoding="UTF-8"?>
<!DOCTYPE svg PUBLIC "-//W3C//DTD SVG 1.1//EN" "http://www.w3.org/Graphics/SVG/1.1/DTD/svg11.dtd">
<svg xmlns="http://www.w3.org/2000/svg" version="1.1" width="512px" height="512px" style="shape-rendering:geometricPrecision; text-rendering:geometricPrecision; image-rendering:optimizeQuality; fill-rule:evenodd; clip-rule:evenodd" xmlns:xlink="http://www.w3.org/1999/xlink">
<g><path style="opacity:0.989" fill="#000000" d="M 233.5,-0.5 C 248.167,-0.5 262.833,-0.5 277.5,-0.5C 377.805,11.9821 449.305,63.9821 492,155.5C 502.297,180.687 508.797,206.687 511.5,233.5C 511.5,248.167 511.5,262.833 511.5,277.5C 499.018,377.805 447.018,449.305 355.5,492C 330.313,502.297 304.313,508.797 277.5,511.5C 262.833,511.5 248.167,511.5 233.5,511.5C 133.195,499.018 61.6947,447.018 19,355.5C 8.70332,330.313 2.20332,304.313 -0.5,277.5C -0.5,262.833 -0.5,248.167 -0.5,233.5C 11.9821,133.195 63.9821,61.6947 155.5,19C 180.687,8.70332 206.687,2.20332 233.5,-0.5 Z M 184.5,93.5 C 231.835,93.3333 279.168,93.5 326.5,94C 341.409,97.9094 350.575,107.409 354,122.5C 354.667,210.833 354.667,299.167 354,387.5C 350.575,402.591 341.409,412.091 326.5,416C 279.167,416.667 231.833,416.667 184.5,416C 169.591,412.091 160.425,402.591 157,387.5C 156.333,299.167 156.333,210.833 157,122.5C 160.609,107.394 169.776,97.7277 184.5,93.5 Z"/></g>
<g><path style="opacity:0.982" fill="#000000" d="M 196.5,115.5 C 235.835,115.333 275.168,115.5 314.5,116C 317.539,117.031 320.039,118.865 322,121.5C 323.654,193.789 323.987,266.123 323,338.5C 322.687,342.965 320.521,346.132 316.5,348C 277.539,349.637 238.539,349.97 199.5,349C 192.833,348.586 189,345.086 188,338.5C 187.333,267.5 187.333,196.5 188,125.5C 189.252,120.753 192.085,117.42 196.5,115.5 Z"/></g>
<g><path style="opacity:0.948" fill="#000000" d="M 253.5,364.5 C 272.937,367.129 279.437,377.796 273,396.5C 265.259,405.839 255.759,408.006 244.5,403C 235.161,395.259 232.994,385.759 238,374.5C 241.841,369.003 247.008,365.669 253.5,364.5 Z"/></g>
</svg>
