<?xml version="1.0" encoding="UTF-8"?>
<!DOCTYPE svg PUBLIC "-//W3C//DTD SVG 1.1//EN" "http://www.w3.org/Graphics/SVG/1.1/DTD/svg11.dtd">
<svg xmlns="http://www.w3.org/2000/svg" version="1.1" width="512px" height="512px" style="shape-rendering:geometricPrecision; text-rendering:geometricPrecision; image-rendering:optimizeQuality; fill-rule:evenodd; clip-rule:evenodd" xmlns:xlink="http://www.w3.org/1999/xlink">
<g><path style="opacity:0.988" fill="#000000" d="M 233.5,-0.5 C 248.167,-0.5 262.833,-0.5 277.5,-0.5C 377.805,11.9821 449.305,63.9821 492,155.5C 502.297,180.687 508.797,206.687 511.5,233.5C 511.5,248.167 511.5,262.833 511.5,277.5C 499.018,377.805 447.018,449.305 355.5,492C 330.313,502.297 304.313,508.797 277.5,511.5C 262.833,511.5 248.167,511.5 233.5,511.5C 133.195,499.018 61.6947,447.018 19,355.5C 8.70332,330.313 2.20332,304.313 -0.5,277.5C -0.5,262.833 -0.5,248.167 -0.5,233.5C 11.9821,133.195 63.9821,61.6947 155.5,19C 180.687,8.70332 206.687,2.20332 233.5,-0.5 Z M 254.5,90.5 C 304.862,120.685 354.862,151.518 404.5,183C 305.167,183.667 205.833,183.667 106.5,183C 156.006,152.304 205.34,121.47 254.5,90.5 Z M 102.5,186.5 C 150.612,216.061 198.612,245.894 246.5,276C 252.5,279.333 258.5,279.333 264.5,276C 312.167,246.167 359.833,216.333 407.5,186.5C 408.667,237.163 408.833,287.83 408,338.5C 405.268,350.232 398.101,357.732 386.5,361C 299.167,361.667 211.833,361.667 124.5,361C 112.899,357.732 105.732,350.232 103,338.5C 102.5,287.834 102.333,237.168 102.5,186.5 Z"/></g>
</svg>
