<?xml version="1.0" encoding="UTF-8"?>
<!DOCTYPE svg PUBLIC "-//W3C//DTD SVG 1.1//EN" "http://www.w3.org/Graphics/SVG/1.1/DTD/svg11.dtd">
<svg xmlns="http://www.w3.org/2000/svg" version="1.1" width="512px" height="512px" style="shape-rendering:geometricPrecision; text-rendering:geometricPrecision; image-rendering:optimizeQuality; fill-rule:evenodd; clip-rule:evenodd" xmlns:xlink="http://www.w3.org/1999/xlink">
<g><path style="opacity:0.991" fill="#000000" d="M 233.5,-0.5 C 248.167,-0.5 262.833,-0.5 277.5,-0.5C 377.805,11.9821 449.305,63.9821 492,155.5C 502.297,180.687 508.797,206.687 511.5,233.5C 511.5,248.167 511.5,262.833 511.5,277.5C 499.018,377.805 447.018,449.305 355.5,492C 330.313,502.297 304.313,508.797 277.5,511.5C 262.833,511.5 248.167,511.5 233.5,511.5C 133.195,499.018 61.6947,447.018 19,355.5C 8.70332,330.313 2.20332,304.313 -0.5,277.5C -0.5,262.833 -0.5,248.167 -0.5,233.5C 11.9821,133.195 63.9821,61.6947 155.5,19C 180.687,8.70332 206.687,2.20332 233.5,-0.5 Z M 245.5,117.5 C 283.008,115.497 310.175,131.163 327,164.5C 334.82,183.912 335.487,203.579 329,223.5C 322.243,241.687 312.91,258.354 301,273.5C 287.387,290.614 272.22,306.281 255.5,320.5C 227.193,296.84 204.36,268.84 187,236.5C 169.461,197.881 175.961,164.047 206.5,135C 218.142,125.96 231.142,120.127 245.5,117.5 Z M 211.5,321.5 C 213.655,321.372 215.655,321.872 217.5,323C 221.5,327 225.5,331 229.5,335C 217.714,337.228 206.047,340.228 194.5,344C 187.417,346.029 182.084,350.195 178.5,356.5C 180.307,360.141 182.974,362.974 186.5,365C 202.944,372.757 220.277,377.09 238.5,378C 261.103,379.752 283.437,378.086 305.5,373C 316.04,370.882 325.374,366.382 333.5,359.5C 334.977,354.617 333.31,351.117 328.5,349C 313.636,341.7 297.969,337.033 281.5,335C 285.833,330.667 290.167,326.333 294.5,322C 310.818,322.995 325.818,327.995 339.5,337C 353.089,347.704 354.422,359.537 343.5,372.5C 335.679,379.412 326.679,384.246 316.5,387C 272.39,399.264 228.723,397.931 185.5,383C 176.169,379.335 169.002,373.168 164,364.5C 160.446,353.091 163.612,343.924 173.5,337C 185.309,329.568 197.976,324.401 211.5,321.5 Z"/></g>
<g><path style="opacity:0.972" fill="#000000" d="M 251.5,146.5 C 275.286,145.805 290.453,156.805 297,179.5C 299.994,204.694 289.494,221.194 265.5,229C 238.001,232.022 221.168,220.189 215,193.5C 214.245,167.633 226.412,151.967 251.5,146.5 Z"/></g>
</svg>
